<svg xmlns="http://www.w3.org/2000/svg" viewBox="0 0 128 128">
  <defs>
    <linearGradient id="bg" x1="0%" y1="0%" x2="100%" y2="100%">
      <stop offset="0%" style="stop-color:#1a2e1a"/>
      <stop offset="100%" style="stop-color:#4A6741"/>
    </linearGradient>
    <linearGradient id="leaf" x1="0%" y1="0%" x2="100%" y2="100%">
      <stop offset="0%" style="stop-color:#6B8E5F"/>
      <stop offset="100%" style="stop-color:#D4A857"/>
    </linearGradient>
    <filter id="glow">
      <feGaussianBlur stdDeviation="3" result="blur"/>
      <feMerge>
        <feMergeNode in="blur"/>
        <feMergeNode in="SourceGraphic"/>
      </feMerge>
    </filter>
  </defs>

  <!-- Dark Forest Background -->
  <circle cx="64" cy="64" r="64" fill="url(#bg)"/>

  <!-- Stylized 'S' from Organic Leaf Shapes -->
  <!-- Upper Leaf Curve -->
  <path d="M 42 32 Q 52 24, 68 28 Q 82 32, 86 44 Q 88 56, 78 62 Q 70 66, 60 64 L 56 63 Q 48 60, 46 54"
        fill="url(#leaf)"
        filter="url(#glow)"
        opacity="0.95"/>

  <!-- Lower Leaf Curve -->
  <path d="M 86 96 Q 76 104, 60 100 Q 46 96, 42 84 Q 40 72, 50 66 Q 58 62, 68 64 L 72 65 Q 80 68, 82 74"
        fill="url(#leaf)"
        filter="url(#glow)"
        opacity="0.95"/>

  <!-- Connecting Vine -->
  <path d="M 60 64 Q 64 66, 64 70 Q 64 74, 68 64"
        stroke="#D4A857"
        stroke-width="3"
        fill="none"
        opacity="0.8"/>

  <!-- Glowing Data Points -->
  <circle cx="90" cy="38" r="4" fill="#D4A857">
    <animate attributeName="opacity" values="0.6;1;0.6" dur="2s" repeatCount="indefinite"/>
  </circle>
  <circle cx="38" cy="90" r="4" fill="#E6C897">
    <animate attributeName="opacity" values="0.7;1;0.7" dur="2.3s" repeatCount="indefinite"/>
  </circle>
  <circle cx="88" cy="94" r="3" fill="#6B8E5F">
    <animate attributeName="opacity" values="0.5;0.9;0.5" dur="2.7s" repeatCount="indefinite"/>
  </circle>
  <circle cx="40" cy="34" r="2.5" fill="#D4A857" opacity="0.7">
    <animate attributeName="opacity" values="0.5;0.8;0.5" dur="3.1s" repeatCount="indefinite"/>
  </circle>

  <!-- Growth Rings (Subtle) -->
  <circle cx="64" cy="64" r="56" fill="none" stroke="#D4A857" stroke-width="0.8" opacity="0.15"/>
  <circle cx="64" cy="64" r="48" fill="none" stroke="#6B8E5F" stroke-width="0.6" opacity="0.1"/>
</svg>
